<svg xmlns="http://www.w3.org/2000/svg" width="28.794" height="32" viewBox="0 0 28.794 32"><defs><style>.a{fill:#fff;}</style></defs><path class="a" d="M26.7,5.952a.743.743,0,0,1-.368-.1A18.307,18.307,0,0,0,17.418,3.6,18.3,18.3,0,0,0,8.506,5.856a.8.8,0,1,1-.768-1.408,20.358,20.358,0,0,1,19.328-.016.81.81,0,0,1-.368,1.52Zm-22.9,8.4a.834.834,0,0,1-.464-.144.8.8,0,0,1-.192-1.12,16.542,16.542,0,0,1,6-5.232,18.469,18.469,0,0,1,16.5-.016,16.605,16.605,0,0,1,6,5.2.8.8,0,0,1-1.312.928,15.02,15.02,0,0,0-5.424-4.7,16.86,16.86,0,0,0-15.04.016,15.179,15.179,0,0,0-5.44,4.736.7.7,0,0,1-.624.336Zm10,19.312a.751.751,0,0,1-.56-.24A16.175,16.175,0,0,1,10.026,29.2a14.2,14.2,0,0,1-1.68-6.944A8.861,8.861,0,0,1,17.4,13.632a8.861,8.861,0,0,1,9.056,8.624.8.8,0,0,1-1.6,0A7.258,7.258,0,0,0,17.4,15.232a7.258,7.258,0,0,0-7.456,7.024,12.535,12.535,0,0,0,1.488,6.16,15.145,15.145,0,0,0,2.96,3.872.822.822,0,0,1,0,1.136.878.878,0,0,1-.592.24ZM25.274,30.7a8.616,8.616,0,0,1-4.96-1.424,8.519,8.519,0,0,1-3.808-7.024.8.8,0,0,1,1.6,0,6.882,6.882,0,0,0,3.1,5.7,7.016,7.016,0,0,0,4.064,1.136,10.574,10.574,0,0,0,1.664-.16.8.8,0,1,1,.272,1.584,10.926,10.926,0,0,1-1.936.192ZM22.058,34a.936.936,0,0,1-.208-.032,12.484,12.484,0,0,1-5.952-3.36,11.675,11.675,0,0,1-3.472-8.352,4.825,4.825,0,0,1,4.928-4.7,4.825,4.825,0,0,1,4.928,4.7,3.336,3.336,0,0,0,6.656,0c0-6.032-5.2-10.928-11.6-10.928A11.681,11.681,0,0,0,6.762,17.776a10.293,10.293,0,0,0-.944,4.48A15.9,15.9,0,0,0,6.89,28.032a.781.781,0,0,1-.464,1.024A.794.794,0,0,1,5.4,28.592a17.825,17.825,0,0,1-1.168-6.336,12.02,12.02,0,0,1,1.088-5.184,13.278,13.278,0,0,1,12.016-7.36c7.28,0,13.2,5.616,13.2,12.528a4.933,4.933,0,0,1-9.856,0,3.222,3.222,0,0,0-3.328-3.1,3.222,3.222,0,0,0-3.328,3.1,10.076,10.076,0,0,0,2.992,7.216,10.88,10.88,0,0,0,5.232,2.96.794.794,0,0,1,.56.976.781.781,0,0,1-.752.608Z" transform="translate(-2.997 -2)"/></svg>