<svg xmlns="http://www.w3.org/2000/svg" width="98" height="70.054" viewBox="0 0 98 70.054"><defs><style>.a,.c{fill:#fff;}.a{font-size:1.15rem;font-family:'Roboto', sans-serif; 'Roboto', sans-serif;letter-spacing:0.1em;}.b{fill:none;stroke:#fff;}</style></defs><g transform="translate(-131 -95.946)"><text class="a" transform="translate(180 161)"><tspan  x="-48.495" y="0">RESTAPP</tspan></text><g transform="translate(3.163)"><path class="b" d="M182.927,134V101.269s4.279,9.152,5.943,15.214,2.258,8.32-.594,12.956S182.927,134,182.927,134Z" transform="translate(-4 -5)"/><path class="b" d="M187.716,124.909l-4.783,4.783" transform="translate(-4 -5)"/><path class="b" d="M186.6,120.2l-3.564,3.564" transform="translate(-4 -5)"/><path class="b" d="M185.395,115.837l-2.359,2.359" transform="translate(-4 -5)"/><path class="b" d="M184.41,111.757l-1.618,1.618" transform="translate(-4 -5)"/><path class="b" d="M183.266,101.547s-3.257-.65-4.731,3.086c-1.681,4.263-2.431,13.266-5.308,16.9-5.064,6.4,4.994,12.66,9.565,12.519" transform="translate(-4 -5)"/><circle class="c" cx="2" cy="2" r="2" transform="translate(172 118)"/></g></g></svg>